<svg xmlns="http://www.w3.org/2000/svg" viewBox="0 0 216 73" enable-background="new 0 0 216 73"><defs><filter id="a" filterUnits="userSpaceOnUse" x="0" y="0" width="215.1" height="73"><feColorMatrix values="1 0 0 0 0 0 1 0 0 0 0 0 1 0 0 0 0 0 1 0"/></filter></defs><mask maskUnits="userSpaceOnUse" x="0" y="0" width="215.1" height="73" id="b"><path d="M0 0h215.1v73H0V0z" fill="#fff" filter="url(#a)"/></mask><path d="M96.5 41.7c-1 4.3-4.3 7.7-8.7 8.7-6.3 1.5-12.5-2.5-14-8.7-.4-1.7-.4-3.5 0-5.3 1-4.3 4.3-7.7 8.7-8.7 6.3-1.5 12.5 2.5 14 8.7.4 1.7.4 3.5 0 5.3zm-3-22.4c-11.1-4.3-20 2.4-20 2.4l-1.8-2.4h-8.2V73h9.9V56.1s5.4 4 12.6 4c12.4 0 22.3-10.7 21-23.3-.8-7.8-6.1-14.7-13.5-17.5zM120.9 35c0-.1 2.6-7.4 10.7-7.4 8 0 10.7 7.4 10.7 7.4h-21.4zm10.7-17.3c-11.7 0-21.2 9.5-21.2 21.2s9.5 21.2 21.2 21.2c6.4 0 14.8-3.2 19.2-12.4h-12c-.7.6-1.5 1.1-2.3 1.6-1.4.7-3 1.1-5 1.1-7.3 0-10.2-5.6-10.3-7.2h31.1c.1-1 .3-2.1.4-3.1.7-12.9-9.6-22.4-21.1-22.4zm36.8 1.6v-1.5c.4-7.8 8.1-9.1 9.2-9.2V0c-2.6-.1-19.3 2.4-19.2 19.2h-4.8v8.3h4.8v32.1h10V27.5H179l10 18.6-14.4 26.8h11.5l14.5-26.8-14.4-26.8h-17.8zm35.2 0l-6.2 11.6 5.7 10.6 12-22.2h-11.5zM48 59.7h9.9V19.3H48v40.4zm-15-18c-1 4.3-4.3 7.7-8.7 8.7-6.3 1.5-12.5-2.5-14-8.7-.4-1.7-.4-3.5 0-5.3 1-4.3 4.3-7.7 8.7-8.7 6.3-1.5 12.5 2.5 14 8.7.4 1.7.4 3.5 0 5.3zm-3-22.4c-11.1-4.3-20 2.4-20 2.4l-1.8-2.4H0V73h9.9V56.1s5.4 4 12.6 4c12.4 0 22.3-10.7 21-23.3-.8-7.8-6.1-14.7-13.5-17.5z" mask="url(#b)" fill="#fff"/></svg>